{
	"asset":{
		"generator":"Khronos glTF Blender I/O v3.6.27",
		"version":"2.0"
	},
	"scene":0,
	"scenes":[
		{
			"name":"Scene",
			"nodes":[
				0,
				1,
				2,
				3,
				4,
				5,
				6
			]
		}
	],
	"nodes":[
		{
			"mesh":0,
			"name":"Bush 1"
		},
		{
			"mesh":1,
			"name":"Bush 2",
			"scale":[
				1.771720290184021,
				1.771720290184021,
				1.771720290184021
			],
			"translation":[
				5.96367883682251,
				1.1355071067810059,
				0
			]
		},
		{
			"mesh":2,
			"name":"Bush 3",
			"translation":[
				-5.061881065368652,
				0.5393807291984558,
				0
			]
		},
		{
			"mesh":3,
			"name":"Mountains"
		},
		{
			"mesh":4,
			"name":"Tall Building"
		},
		{
			"mesh":5,
			"name":"Short Building",
			"translation":[
				15.025772094726562,
				0,
				0
			]
		},
		{
			"mesh":6,
			"name":"Medium Building",
			"translation":[
				34.219276428222656,
				0,
				0
			]
		}
	],
	"materials":[
		{
			"doubleSided":true,
			"name":"Material",
			"pbrMetallicRoughness":{
				"baseColorFactor":[
					0.800000011920929,
					0.800000011920929,
					0.800000011920929,
					1
				],
				"metallicFactor":0,
				"roughnessFactor":0.5
			}
		}
	],
	"meshes":[
		{
			"name":"Bush 1",
			"primitives":[
				{
					"attributes":{
						"POSITION":0,
						"NORMAL":1,
						"TEXCOORD_0":2
					},
					"indices":3,
					"material":0
				}
			]
		},
		{
			"name":"Bush 2",
			"primitives":[
				{
					"attributes":{
						"POSITION":4,
						"NORMAL":5,
						"TEXCOORD_0":6
					},
					"indices":7
				}
			]
		},
		{
			"name":"Bush 3",
			"primitives":[
				{
					"attributes":{
						"POSITION":8,
						"NORMAL":9,
						"TEXCOORD_0":10
					},
					"indices":11
				}
			]
		},
		{
			"name":"Mountains",
			"primitives":[
				{
					"attributes":{
						"POSITION":12,
						"NORMAL":13,
						"TEXCOORD_0":14
					},
					"indices":15
				}
			]
		},
		{
			"name":"Tall Building",
			"primitives":[
				{
					"attributes":{
						"POSITION":16,
						"NORMAL":17,
						"TEXCOORD_0":18
					},
					"indices":19
				}
			]
		},
		{
			"name":"Short Building",
			"primitives":[
				{
					"attributes":{
						"POSITION":20,
						"NORMAL":21,
						"TEXCOORD_0":22
					},
					"indices":19
				}
			]
		},
		{
			"name":"Medium Building",
			"primitives":[
				{
					"attributes":{
						"POSITION":23,
						"NORMAL":24,
						"TEXCOORD_0":25
					},
					"indices":19
				}
			]
		}
	],
	"accessors":[
		{
			"bufferView":0,
			"componentType":5126,
			"count":70,
			"max":[
				2.1495230197906494,
				2.2161929607391357,
				1.2750518321990967
			],
			"min":[
				-1.3506115674972534,
				-1.0440846681594849,
				-1.3095937967300415
			],
			"type":"VEC3"
		},
		{
			"bufferView":1,
			"componentType":5126,
			"count":70,
			"type":"VEC3"
		},
		{
			"bufferView":2,
			"componentType":5126,
			"count":70,
			"type":"VEC2"
		},
		{
			"bufferView":3,
			"componentType":5123,
			"count":294,
			"type":"SCALAR"
		},
		{
			"bufferView":4,
			"componentType":5126,
			"count":90,
			"max":[
				1.8206760883331299,
				1.4030970335006714,
				1.3715744018554688
			],
			"min":[
				-1.8172301054000854,
				-1.3053150177001953,
				-1.2648851871490479
			],
			"type":"VEC3"
		},
		{
			"bufferView":5,
			"componentType":5126,
			"count":90,
			"type":"VEC3"
		},
		{
			"bufferView":6,
			"componentType":5126,
			"count":90,
			"type":"VEC2"
		},
		{
			"bufferView":7,
			"componentType":5123,
			"count":396,
			"type":"SCALAR"
		},
		{
			"bufferView":8,
			"componentType":5126,
			"count":98,
			"max":[
				2.594660997390747,
				4.826027870178223,
				1.9376990795135498
			],
			"min":[
				-1.80889892578125,
				-1.5457878112792969,
				-2.2593166828155518
			],
			"type":"VEC3"
		},
		{
			"bufferView":9,
			"componentType":5126,
			"count":98,
			"type":"VEC3"
		},
		{
			"bufferView":10,
			"componentType":5126,
			"count":98,
			"type":"VEC2"
		},
		{
			"bufferView":11,
			"componentType":5123,
			"count":444,
			"type":"SCALAR"
		},
		{
			"bufferView":12,
			"componentType":5126,
			"count":402,
			"max":[
				60.28641891479492,
				23.327009201049805,
				3.4418203830718994
			],
			"min":[
				-0.24578212201595306,
				-0.14961016178131104,
				-49.26626968383789
			],
			"type":"VEC3"
		},
		{
			"bufferView":13,
			"componentType":5126,
			"count":402,
			"type":"VEC3"
		},
		{
			"bufferView":14,
			"componentType":5126,
			"count":402,
			"type":"VEC2"
		},
		{
			"bufferView":15,
			"componentType":5123,
			"count":1113,
			"type":"SCALAR"
		},
		{
			"bufferView":16,
			"componentType":5126,
			"count":24,
			"max":[
				4.255814552307129,
				31.967592239379883,
				4
			],
			"min":[
				-4.255814552307129,
				0,
				-4
			],
			"type":"VEC3"
		},
		{
			"bufferView":17,
			"componentType":5126,
			"count":24,
			"type":"VEC3"
		},
		{
			"bufferView":18,
			"componentType":5126,
			"count":24,
			"type":"VEC2"
		},
		{
			"bufferView":19,
			"componentType":5123,
			"count":36,
			"type":"SCALAR"
		},
		{
			"bufferView":20,
			"componentType":5126,
			"count":24,
			"max":[
				7.327873229980469,
				19.38037872314453,
				6.3685173988342285
			],
			"min":[
				-7.327873706817627,
				0,
				-6.3685173988342285
			],
			"type":"VEC3"
		},
		{
			"bufferView":21,
			"componentType":5126,
			"count":24,
			"type":"VEC3"
		},
		{
			"bufferView":22,
			"componentType":5126,
			"count":24,
			"type":"VEC2"
		},
		{
			"bufferView":23,
			"componentType":5126,
			"count":24,
			"max":[
				5.919309139251709,
				24.180416107177734,
				6.3685173988342285
			],
			"min":[
				-5.919309139251709,
				0,
				-6.3685173988342285
			],
			"type":"VEC3"
		},
		{
			"bufferView":24,
			"componentType":5126,
			"count":24,
			"type":"VEC3"
		},
		{
			"bufferView":25,
			"componentType":5126,
			"count":24,
			"type":"VEC2"
		}
	],
	"bufferViews":[
		{
			"buffer":0,
			"byteLength":840,
			"byteOffset":0,
			"target":34962
		},
		{
			"buffer":0,
			"byteLength":840,
			"byteOffset":840,
			"target":34962
		},
		{
			"buffer":0,
			"byteLength":560,
			"byteOffset":1680,
			"target":34962
		},
		{
			"buffer":0,
			"byteLength":588,
			"byteOffset":2240,
			"target":34963
		},
		{
			"buffer":0,
			"byteLength":1080,
			"byteOffset":2828,
			"target":34962
		},
		{
			"buffer":0,
			"byteLength":1080,
			"byteOffset":3908,
			"target":34962
		},
		{
			"buffer":0,
			"byteLength":720,
			"byteOffset":4988,
			"target":34962
		},
		{
			"buffer":0,
			"byteLength":792,
			"byteOffset":5708,
			"target":34963
		},
		{
			"buffer":0,
			"byteLength":1176,
			"byteOffset":6500,
			"target":34962
		},
		{
			"buffer":0,
			"byteLength":1176,
			"byteOffset":7676,
			"target":34962
		},
		{
			"buffer":0,
			"byteLength":784,
			"byteOffset":8852,
			"target":34962
		},
		{
			"buffer":0,
			"byteLength":888,
			"byteOffset":9636,
			"target":34963
		},
		{
			"buffer":0,
			"byteLength":4824,
			"byteOffset":10524,
			"target":34962
		},
		{
			"buffer":0,
			"byteLength":4824,
			"byteOffset":15348,
			"target":34962
		},
		{
			"buffer":0,
			"byteLength":3216,
			"byteOffset":20172,
			"target":34962
		},
		{
			"buffer":0,
			"byteLength":2226,
			"byteOffset":23388,
			"target":34963
		},
		{
			"buffer":0,
			"byteLength":288,
			"byteOffset":25616,
			"target":34962
		},
		{
			"buffer":0,
			"byteLength":288,
			"byteOffset":25904,
			"target":34962
		},
		{
			"buffer":0,
			"byteLength":192,
			"byteOffset":26192,
			"target":34962
		},
		{
			"buffer":0,
			"byteLength":72,
			"byteOffset":26384,
			"target":34963
		},
		{
			"buffer":0,
			"byteLength":288,
			"byteOffset":26456,
			"target":34962
		},
		{
			"buffer":0,
			"byteLength":288,
			"byteOffset":26744,
			"target":34962
		},
		{
			"buffer":0,
			"byteLength":192,
			"byteOffset":27032,
			"target":34962
		},
		{
			"buffer":0,
			"byteLength":288,
			"byteOffset":27224,
			"target":34962
		},
		{
			"buffer":0,
			"byteLength":288,
			"byteOffset":27512,
			"target":34962
		},
		{
			"buffer":0,
			"byteLength":192,
			"byteOffset":27800,
			"target":34962
		}
	],
	"buffers":[
		{
			"byteLength":27992,
			"uri":"background_assets.bin"
		}
	]
}
