{
	"asset":{
		"generator":"Khronos glTF Blender I/O v3.6.27",
		"version":"2.0"
	},
	"scene":0,
	"scenes":[
		{
			"name":"Scene",
			"nodes":[
				0,
				1,
				2,
				3,
				4,
				5,
				6,
				7
			]
		}
	],
	"nodes":[
		{
			"mesh":0,
			"name":"Body"
		},
		{
			"mesh":1,
			"name":"Eyes",
			"scale":[
				-0.4097233712673187,
				-0.4097233712673187,
				-0.4097233712673187
			],
			"translation":[
				0.5132218599319458,
				0.3889770805835724,
				0.46226370334625244
			]
		},
		{
			"mesh":2,
			"name":"Upper Lips",
			"rotation":[
				0.06438789516687393,
				-0.7041691541671753,
				0.06438790261745453,
				0.7041691541671753
			],
			"scale":[
				-0.5607233643531799,
				-0.3419010639190674,
				-0.5577680468559265
			],
			"translation":[
				0.9716988801956177,
				0.08786404132843018,
				-0.5049586892127991
			]
		},
		{
			"mesh":3,
			"name":"Lower Lips",
			"rotation":[
				0.06438789516687393,
				-0.7041691541671753,
				0.06438790261745453,
				0.7041691541671753
			],
			"scale":[
				-0.5607233643531799,
				-0.3419010639190674,
				-0.5577680468559265
			],
			"translation":[
				1.031507134437561,
				-0.2364438772201538,
				0
			]
		},
		{
			"mesh":4,
			"name":"Tail",
			"rotation":[
				0,
				0,
				0.22639793157577515,
				0.9740349650382996
			],
			"scale":[
				0.3981727659702301,
				0.3981727659702301,
				0.28711166977882385
			],
			"translation":[
				-0.9529285430908203,
				-0.446964293718338,
				0
			]
		},
		{
			"mesh":5,
			"name":"Head Feathers",
			"rotation":[
				0.7913183569908142,
				-0.6114043593406677,
				0,
				2.9424103331621154e-07
			],
			"scale":[
				0.39817288517951965,
				0.39817288517951965,
				0.1905268132686615
			],
			"translation":[
				-0.1837340146303177,
				0.5820931196212769,
				0
			]
		},
		{
			"mesh":6,
			"name":"Right Wing",
			"rotation":[
				0.06438789516687393,
				-0.7041691541671753,
				0.06438790261745453,
				0.7041691541671753
			],
			"scale":[
				-0.6336725950241089,
				-0.3034902811050415,
				-0.5245118737220764
			],
			"translation":[
				-0.33763545751571655,
				0.21240513026714325,
				0.9023774266242981
			]
		},
		{
			"mesh":7,
			"name":"Left Wing",
			"rotation":[
				0.06438790261745453,
				0.7041691541671753,
				-0.06438789516687393,
				0.7041691541671753
			],
			"scale":[
				-0.6336725950241089,
				-0.3034902811050415,
				-0.5245118737220764
			],
			"translation":[
				-0.33763545751571655,
				0.21240513026714325,
				-0.9023770093917847
			]
		}
	],
	"materials":[
		{
			"doubleSided":true,
			"name":"Material",
			"pbrMetallicRoughness":{
				"baseColorFactor":[
					0.800000011920929,
					0.800000011920929,
					0.800000011920929,
					1
				],
				"metallicFactor":0,
				"roughnessFactor":0.5
			}
		}
	],
	"meshes":[
		{
			"name":"Body",
			"primitives":[
				{
					"attributes":{
						"POSITION":0,
						"NORMAL":1,
						"TEXCOORD_0":2
					},
					"indices":3,
					"material":0
				}
			]
		},
		{
			"name":"Eyes",
			"primitives":[
				{
					"attributes":{
						"POSITION":4,
						"NORMAL":5,
						"TEXCOORD_0":6
					},
					"indices":7
				}
			]
		},
		{
			"name":"Upper Lips",
			"primitives":[
				{
					"attributes":{
						"POSITION":8,
						"NORMAL":9,
						"TEXCOORD_0":10
					},
					"indices":11
				}
			]
		},
		{
			"name":"Lower Lips",
			"primitives":[
				{
					"attributes":{
						"POSITION":12,
						"NORMAL":13,
						"TEXCOORD_0":14
					},
					"indices":11
				}
			]
		},
		{
			"name":"Tail",
			"primitives":[
				{
					"attributes":{
						"POSITION":15,
						"NORMAL":16,
						"TEXCOORD_0":17
					},
					"indices":18
				}
			]
		},
		{
			"name":"Head Feathers",
			"primitives":[
				{
					"attributes":{
						"POSITION":19,
						"NORMAL":20,
						"TEXCOORD_0":21
					},
					"indices":18
				}
			]
		},
		{
			"name":"Right Wing",
			"primitives":[
				{
					"attributes":{
						"POSITION":22,
						"NORMAL":23,
						"TEXCOORD_0":24
					},
					"indices":11
				}
			]
		},
		{
			"name":"Left Wing",
			"primitives":[
				{
					"attributes":{
						"POSITION":25,
						"NORMAL":26,
						"TEXCOORD_0":27
					},
					"indices":11
				}
			]
		}
	],
	"accessors":[
		{
			"bufferView":0,
			"componentType":5126,
			"count":136,
			"max":[
				0.9226260185241699,
				0.7829917073249817,
				0.9031346440315247
			],
			"min":[
				-1.1008497476577759,
				-0.723507821559906,
				-0.9031346440315247
			],
			"type":"VEC3"
		},
		{
			"bufferView":1,
			"componentType":5126,
			"count":136,
			"type":"VEC3"
		},
		{
			"bufferView":2,
			"componentType":5126,
			"count":136,
			"type":"VEC2"
		},
		{
			"bufferView":3,
			"componentType":5123,
			"count":612,
			"type":"SCALAR"
		},
		{
			"bufferView":4,
			"componentType":5126,
			"count":126,
			"max":[
				0.9510579705238342,
				1,
				3.256467342376709
			],
			"min":[
				-0.9510578513145447,
				-1,
				-0.9999999403953552
			],
			"type":"VEC3"
		},
		{
			"bufferView":5,
			"componentType":5126,
			"count":126,
			"type":"VEC3"
		},
		{
			"bufferView":6,
			"componentType":5126,
			"count":126,
			"type":"VEC2"
		},
		{
			"bufferView":7,
			"componentType":5123,
			"count":480,
			"type":"SCALAR"
		},
		{
			"bufferView":8,
			"componentType":5126,
			"count":39,
			"max":[
				-0.05219905450940132,
				0.8395062685012817,
				0.8395061492919922
			],
			"min":[
				-1.731211543083191,
				-0.8395062685012817,
				-0.8395062685012817
			],
			"type":"VEC3"
		},
		{
			"bufferView":9,
			"componentType":5126,
			"count":39,
			"type":"VEC3"
		},
		{
			"bufferView":10,
			"componentType":5126,
			"count":39,
			"type":"VEC2"
		},
		{
			"bufferView":11,
			"componentType":5123,
			"count":144,
			"type":"SCALAR"
		},
		{
			"bufferView":12,
			"componentType":5126,
			"count":39,
			"max":[
				0.8395062685012817,
				0.8395062685012817,
				0.8395062685012817
			],
			"min":[
				-0.8395062685012817,
				-0.8395062685012817,
				-0.8395062685012817
			],
			"type":"VEC3"
		},
		{
			"bufferView":13,
			"componentType":5126,
			"count":39,
			"type":"VEC3"
		},
		{
			"bufferView":14,
			"componentType":5126,
			"count":39,
			"type":"VEC2"
		},
		{
			"bufferView":15,
			"componentType":5126,
			"count":200,
			"max":[
				1.2962043285369873,
				1.5099186897277832,
				1.0427411794662476
			],
			"min":[
				-1.5403623580932617,
				-0.6368594765663147,
				-1.0427414178848267
			],
			"type":"VEC3"
		},
		{
			"bufferView":16,
			"componentType":5126,
			"count":200,
			"type":"VEC3"
		},
		{
			"bufferView":17,
			"componentType":5126,
			"count":200,
			"type":"VEC2"
		},
		{
			"bufferView":18,
			"componentType":5123,
			"count":888,
			"type":"SCALAR"
		},
		{
			"bufferView":19,
			"componentType":5126,
			"count":200,
			"max":[
				1.2962043285369873,
				1.5099186897277832,
				1.0427411794662476
			],
			"min":[
				-1.5403623580932617,
				-0.6368594765663147,
				-1.0427414178848267
			],
			"type":"VEC3"
		},
		{
			"bufferView":20,
			"componentType":5126,
			"count":200,
			"type":"VEC3"
		},
		{
			"bufferView":21,
			"componentType":5126,
			"count":200,
			"type":"VEC2"
		},
		{
			"bufferView":22,
			"componentType":5126,
			"count":39,
			"max":[
				0.050455186516046524,
				0.8395062685012817,
				0.8395061492919922
			],
			"min":[
				-1.6285573244094849,
				-0.8395062685012817,
				-0.8395062685012817
			],
			"type":"VEC3"
		},
		{
			"bufferView":23,
			"componentType":5126,
			"count":39,
			"type":"VEC3"
		},
		{
			"bufferView":24,
			"componentType":5126,
			"count":39,
			"type":"VEC2"
		},
		{
			"bufferView":25,
			"componentType":5126,
			"count":39,
			"max":[
				0.050455186516046524,
				0.8395062685012817,
				0.8395061492919922
			],
			"min":[
				-1.6285573244094849,
				-0.8395062685012817,
				-0.8395062685012817
			],
			"type":"VEC3"
		},
		{
			"bufferView":26,
			"componentType":5126,
			"count":39,
			"type":"VEC3"
		},
		{
			"bufferView":27,
			"componentType":5126,
			"count":39,
			"type":"VEC2"
		}
	],
	"bufferViews":[
		{
			"buffer":0,
			"byteLength":1632,
			"byteOffset":0,
			"target":34962
		},
		{
			"buffer":0,
			"byteLength":1632,
			"byteOffset":1632,
			"target":34962
		},
		{
			"buffer":0,
			"byteLength":1088,
			"byteOffset":3264,
			"target":34962
		},
		{
			"buffer":0,
			"byteLength":1224,
			"byteOffset":4352,
			"target":34963
		},
		{
			"buffer":0,
			"byteLength":1512,
			"byteOffset":5576,
			"target":34962
		},
		{
			"buffer":0,
			"byteLength":1512,
			"byteOffset":7088,
			"target":34962
		},
		{
			"buffer":0,
			"byteLength":1008,
			"byteOffset":8600,
			"target":34962
		},
		{
			"buffer":0,
			"byteLength":960,
			"byteOffset":9608,
			"target":34963
		},
		{
			"buffer":0,
			"byteLength":468,
			"byteOffset":10568,
			"target":34962
		},
		{
			"buffer":0,
			"byteLength":468,
			"byteOffset":11036,
			"target":34962
		},
		{
			"buffer":0,
			"byteLength":312,
			"byteOffset":11504,
			"target":34962
		},
		{
			"buffer":0,
			"byteLength":288,
			"byteOffset":11816,
			"target":34963
		},
		{
			"buffer":0,
			"byteLength":468,
			"byteOffset":12104,
			"target":34962
		},
		{
			"buffer":0,
			"byteLength":468,
			"byteOffset":12572,
			"target":34962
		},
		{
			"buffer":0,
			"byteLength":312,
			"byteOffset":13040,
			"target":34962
		},
		{
			"buffer":0,
			"byteLength":2400,
			"byteOffset":13352,
			"target":34962
		},
		{
			"buffer":0,
			"byteLength":2400,
			"byteOffset":15752,
			"target":34962
		},
		{
			"buffer":0,
			"byteLength":1600,
			"byteOffset":18152,
			"target":34962
		},
		{
			"buffer":0,
			"byteLength":1776,
			"byteOffset":19752,
			"target":34963
		},
		{
			"buffer":0,
			"byteLength":2400,
			"byteOffset":21528,
			"target":34962
		},
		{
			"buffer":0,
			"byteLength":2400,
			"byteOffset":23928,
			"target":34962
		},
		{
			"buffer":0,
			"byteLength":1600,
			"byteOffset":26328,
			"target":34962
		},
		{
			"buffer":0,
			"byteLength":468,
			"byteOffset":27928,
			"target":34962
		},
		{
			"buffer":0,
			"byteLength":468,
			"byteOffset":28396,
			"target":34962
		},
		{
			"buffer":0,
			"byteLength":312,
			"byteOffset":28864,
			"target":34962
		},
		{
			"buffer":0,
			"byteLength":468,
			"byteOffset":29176,
			"target":34962
		},
		{
			"buffer":0,
			"byteLength":468,
			"byteOffset":29644,
			"target":34962
		},
		{
			"buffer":0,
			"byteLength":312,
			"byteOffset":30112,
			"target":34962
		}
	],
	"buffers":[
		{
			"byteLength":30424,
			"uri":"flappy_bird.bin"
		}
	]
}
