{
	"asset":{
		"generator":"Khronos glTF Blender I/O v3.6.27",
		"version":"2.0"
	},
	"scene":0,
	"scenes":[
		{
			"name":"Scene",
			"nodes":[
				0,
				1,
				2
			]
		}
	],
	"nodes":[
		{
			"mesh":0,
			"name":"Bush 1"
		},
		{
			"mesh":1,
			"name":"Bush 2",
			"scale":[
				1.771720290184021,
				1.771720290184021,
				1.771720290184021
			],
			"translation":[
				5.96367883682251,
				1.1355071067810059,
				0
			]
		},
		{
			"mesh":2,
			"name":"Bush 3",
			"translation":[
				-5.061881065368652,
				0.5393807291984558,
				0
			]
		}
	],
	"materials":[
		{
			"doubleSided":true,
			"name":"Material",
			"pbrMetallicRoughness":{
				"baseColorFactor":[
					0.800000011920929,
					0.800000011920929,
					0.800000011920929,
					1
				],
				"metallicFactor":0,
				"roughnessFactor":0.5
			}
		}
	],
	"meshes":[
		{
			"name":"Bush 1",
			"primitives":[
				{
					"attributes":{
						"POSITION":0,
						"NORMAL":1,
						"TEXCOORD_0":2
					},
					"indices":3,
					"material":0
				}
			]
		},
		{
			"name":"Bush 2",
			"primitives":[
				{
					"attributes":{
						"POSITION":4,
						"NORMAL":5,
						"TEXCOORD_0":6
					},
					"indices":7
				}
			]
		},
		{
			"name":"Bush 3",
			"primitives":[
				{
					"attributes":{
						"POSITION":8,
						"NORMAL":9,
						"TEXCOORD_0":10
					},
					"indices":11
				}
			]
		}
	],
	"accessors":[
		{
			"bufferView":0,
			"componentType":5126,
			"count":70,
			"max":[
				2.1495230197906494,
				2.2161929607391357,
				1.2750518321990967
			],
			"min":[
				-1.3506115674972534,
				-1.0440846681594849,
				-1.3095937967300415
			],
			"type":"VEC3"
		},
		{
			"bufferView":1,
			"componentType":5126,
			"count":70,
			"type":"VEC3"
		},
		{
			"bufferView":2,
			"componentType":5126,
			"count":70,
			"type":"VEC2"
		},
		{
			"bufferView":3,
			"componentType":5123,
			"count":294,
			"type":"SCALAR"
		},
		{
			"bufferView":4,
			"componentType":5126,
			"count":90,
			"max":[
				1.8206760883331299,
				1.4030970335006714,
				1.3715744018554688
			],
			"min":[
				-1.8172301054000854,
				-1.3053150177001953,
				-1.2648851871490479
			],
			"type":"VEC3"
		},
		{
			"bufferView":5,
			"componentType":5126,
			"count":90,
			"type":"VEC3"
		},
		{
			"bufferView":6,
			"componentType":5126,
			"count":90,
			"type":"VEC2"
		},
		{
			"bufferView":7,
			"componentType":5123,
			"count":396,
			"type":"SCALAR"
		},
		{
			"bufferView":8,
			"componentType":5126,
			"count":98,
			"max":[
				2.594660997390747,
				4.826027870178223,
				1.9376990795135498
			],
			"min":[
				-1.80889892578125,
				-1.5457878112792969,
				-2.2593166828155518
			],
			"type":"VEC3"
		},
		{
			"bufferView":9,
			"componentType":5126,
			"count":98,
			"type":"VEC3"
		},
		{
			"bufferView":10,
			"componentType":5126,
			"count":98,
			"type":"VEC2"
		},
		{
			"bufferView":11,
			"componentType":5123,
			"count":444,
			"type":"SCALAR"
		}
	],
	"bufferViews":[
		{
			"buffer":0,
			"byteLength":840,
			"byteOffset":0,
			"target":34962
		},
		{
			"buffer":0,
			"byteLength":840,
			"byteOffset":840,
			"target":34962
		},
		{
			"buffer":0,
			"byteLength":560,
			"byteOffset":1680,
			"target":34962
		},
		{
			"buffer":0,
			"byteLength":588,
			"byteOffset":2240,
			"target":34963
		},
		{
			"buffer":0,
			"byteLength":1080,
			"byteOffset":2828,
			"target":34962
		},
		{
			"buffer":0,
			"byteLength":1080,
			"byteOffset":3908,
			"target":34962
		},
		{
			"buffer":0,
			"byteLength":720,
			"byteOffset":4988,
			"target":34962
		},
		{
			"buffer":0,
			"byteLength":792,
			"byteOffset":5708,
			"target":34963
		},
		{
			"buffer":0,
			"byteLength":1176,
			"byteOffset":6500,
			"target":34962
		},
		{
			"buffer":0,
			"byteLength":1176,
			"byteOffset":7676,
			"target":34962
		},
		{
			"buffer":0,
			"byteLength":784,
			"byteOffset":8852,
			"target":34962
		},
		{
			"buffer":0,
			"byteLength":888,
			"byteOffset":9636,
			"target":34963
		}
	],
	"buffers":[
		{
			"byteLength":10524,
			"uri":"background_assets.bin"
		}
	]
}
